REM DIRINDEX 1\2\4\8,1\2\4\9,1\2\4\10,1\2\5\11,1\2\5\12,1\2\5\13,1\2\5\14,1\2\5\15,1\3\6\16,1\3\6\17,1\3\6\18,1\3\7\19,1\3\7\20,1\3\7\21,1\3\7\22,1\3\7\23
REM DIRNAME "folder01","folder02","folder03","folder04","folder05","folder06","folder07","folder08","folder09","folder10","folder11","folder12","folder13","folder14","folder15","folder16","folder17","folder18","folder19","folder20","folder21","folder22","folder23"
TITLE ""
FILE "LR_black_phrase_B04.mp3" MP3
  TRACK 01 AUDIO
    TITLE "0:"
    INDEX 01 00:00:00
  TRACK 02 AUDIO
    TITLE "19:cjc171_12951"
    INDEX 01 00:00:14
  TRACK 03 AUDIO
    TITLE "0:"
    INDEX 01 00:01:37
  TRACK 04 AUDIO
    TITLE "20:cjc171_12952"
    INDEX 01 00:02:03
  TRACK 05 AUDIO
    TITLE "0:"
    INDEX 01 00:03:52
  TRACK 06 AUDIO
    TITLE "21:cjc171_12953"
    INDEX 01 00:04:49
  TRACK 07 AUDIO
    TITLE "0:"
    INDEX 01 00:06:52
  TRACK 08 AUDIO
    TITLE "22:cjc171_12954"
    INDEX 01 00:07:16
  TRACK 09 AUDIO
    TITLE "0:"
    INDEX 01 00:09:48
  TRACK 10 AUDIO
    TITLE "23:cjc171_12955"
    INDEX 01 00:10:03
  TRACK 11 AUDIO
    TITLE "0:"
    INDEX 01 00:12:33
  TRACK 12 AUDIO
    TITLE "19:cjc171_12956"
    INDEX 01 00:13:36
  TRACK 13 AUDIO
    TITLE "0:"
    INDEX 01 00:14:69
  TRACK 14 AUDIO
    TITLE "20:cjc171_12957"
    INDEX 01 00:15:33
  TRACK 15 AUDIO
    TITLE "0:"
    INDEX 01 00:17:70
  TRACK 16 AUDIO
    TITLE "21:cjc171_12958"
    INDEX 01 00:18:69
  TRACK 17 AUDIO
    TITLE "0:"
    INDEX 01 00:21:69
  TRACK 18 AUDIO
    TITLE "22:cjc171_12959"
    INDEX 01 00:22:37
  TRACK 19 AUDIO
    TITLE "0:"
    INDEX 01 00:25:12
  TRACK 20 AUDIO
    TITLE "23:cjc171_12960"
    INDEX 01 00:25:42
  TRACK 21 AUDIO
    TITLE "0:"
    INDEX 01 00:28:18
  TRACK 22 AUDIO
    TITLE "19:cjc171_12961"
    INDEX 01 00:29:22
  TRACK 23 AUDIO
    TITLE "0:"
    INDEX 01 00:30:45
  TRACK 24 AUDIO
    TITLE "20:cjc171_12962"
    INDEX 01 00:31:09
  TRACK 25 AUDIO
    TITLE "0:"
    INDEX 01 00:33:47
  TRACK 26 AUDIO
    TITLE "21:cjc171_12963"
    INDEX 01 00:34:43
  TRACK 27 AUDIO
    TITLE "0:"
    INDEX 01 00:36:12
  TRACK 28 AUDIO
    TITLE "22:cjc171_12964"
    INDEX 01 00:36:51
  TRACK 29 AUDIO
    TITLE "0:"
    INDEX 01 00:38:62
  TRACK 30 AUDIO
    TITLE "23:cjc171_12965"
    INDEX 01 00:39:16
  TRACK 31 AUDIO
    TITLE "0:"
    INDEX 01 00:41:27
  TRACK 32 AUDIO
    TITLE "19:cjc171_12966"
    INDEX 01 00:42:28
  TRACK 33 AUDIO
    TITLE "0:"
    INDEX 01 00:43:28
  TRACK 34 AUDIO
    TITLE "20:cjc171_12967"
    INDEX 01 00:43:67
  TRACK 35 AUDIO
    TITLE "0:"
    INDEX 01 00:46:36
  TRACK 36 AUDIO
    TITLE "21:cjc171_12968"
    INDEX 01 00:47:35
  TRACK 37 AUDIO
    TITLE "0:"
    INDEX 01 00:49:66
  TRACK 38 AUDIO
    TITLE "22:cjc171_12969"
    INDEX 01 00:50:32
  TRACK 39 AUDIO
    TITLE "0:"
    INDEX 01 00:52:54
  TRACK 40 AUDIO
    TITLE "23:cjc171_12970"
    INDEX 01 00:53:05
  TRACK 41 AUDIO
    TITLE "0:"
    INDEX 01 00:55:27
  TRACK 42 AUDIO
    TITLE "19:cjc171_12971"
    INDEX 01 00:56:25
  TRACK 43 AUDIO
    TITLE "0:"
    INDEX 01 00:57:38
  TRACK 44 AUDIO
    TITLE "20:cjc171_12972"
    INDEX 01 00:57:71
  TRACK 45 AUDIO
    TITLE "0:"
    INDEX 01 01:01:43
  TRACK 46 AUDIO
    TITLE "21:cjc171_12973"
    INDEX 01 01:02:43
  TRACK 47 AUDIO
    TITLE "0:"
    INDEX 01 01:05:69
  TRACK 48 AUDIO
    TITLE "22:cjc171_12974"
    INDEX 01 01:06:27
  TRACK 49 AUDIO
    TITLE "0:"
    INDEX 01 01:09:39
  TRACK 50 AUDIO
    TITLE "23:cjc171_12975"
    INDEX 01 01:09:60
  TRACK 51 AUDIO
    TITLE "0:"
    INDEX 01 01:12:71
  TRACK 52 AUDIO
    TITLE "19:cjc171_12976"
    INDEX 01 01:13:66
  TRACK 53 AUDIO
    TITLE "0:"
    INDEX 01 01:15:08
  TRACK 54 AUDIO
    TITLE "20:cjc171_12977"
    INDEX 01 01:15:41
  TRACK 55 AUDIO
    TITLE "0:"
    INDEX 01 01:17:40
  TRACK 56 AUDIO
    TITLE "21:cjc171_12978"
    INDEX 01 01:18:44
  TRACK 57 AUDIO
    TITLE "0:"
    INDEX 01 01:20:74
  TRACK 58 AUDIO
    TITLE "22:cjc171_12979"
    INDEX 01 01:21:36
  TRACK 59 AUDIO
    TITLE "0:"
    INDEX 01 01:23:61
  TRACK 60 AUDIO
    TITLE "23:cjc171_12980"
    INDEX 01 01:24:11
  TRACK 61 AUDIO
    TITLE "0:"
    INDEX 01 01:26:35
  TRACK 62 AUDIO
    TITLE "19:cjc171_12981"
    INDEX 01 01:27:37
  TRACK 63 AUDIO
    TITLE "0:"
    INDEX 01 01:28:68
  TRACK 64 AUDIO
    TITLE "20:cjc171_12982"
    INDEX 01 01:29:32
  TRACK 65 AUDIO
    TITLE "0:"
    INDEX 01 01:31:19
  TRACK 66 AUDIO
    TITLE "21:cjc171_12983"
    INDEX 01 01:32:18
  TRACK 67 AUDIO
    TITLE "0:"
    INDEX 01 01:34:58
  TRACK 68 AUDIO
    TITLE "22:cjc171_12984"
    INDEX 01 01:35:25
  TRACK 69 AUDIO
    TITLE "0:"
    INDEX 01 01:37:69
  TRACK 70 AUDIO
    TITLE "23:cjc171_12985"
    INDEX 01 01:38:27
  TRACK 71 AUDIO
    TITLE "0:"
    INDEX 01 01:40:69
  TRACK 72 AUDIO
    TITLE "19:cjc171_12986"
    INDEX 01 01:41:74
  TRACK 73 AUDIO
    TITLE "0:"
    INDEX 01 01:43:14
  TRACK 74 AUDIO
    TITLE "20:cjc171_12987"
    INDEX 01 01:43:55
  TRACK 75 AUDIO
    TITLE "0:"
    INDEX 01 01:46:48
  TRACK 76 AUDIO
    TITLE "21:cjc171_12988"
    INDEX 01 01:47:47
  TRACK 77 AUDIO
    TITLE "0:"
    INDEX 01 01:50:20
  TRACK 78 AUDIO
    TITLE "22:cjc171_12989"
    INDEX 01 01:50:57
  TRACK 79 AUDIO
    TITLE "0:"
    INDEX 01 01:53:13
  TRACK 80 AUDIO
    TITLE "23:cjc171_12990"
    INDEX 01 01:53:42
  TRACK 81 AUDIO
    TITLE "0:"
    INDEX 01 01:55:72
  TRACK 82 AUDIO
    TITLE "19:cjc171_12991"
    INDEX 01 01:57:03
  TRACK 83 AUDIO
    TITLE "0:"
    INDEX 01 01:58:24
  TRACK 84 AUDIO
    TITLE "20:cjc171_12992"
    INDEX 01 01:58:63
  TRACK 85 AUDIO
    TITLE "0:"
    INDEX 01 02:01:28
  TRACK 86 AUDIO
    TITLE "21:cjc171_12993"
    INDEX 01 02:02:27
  TRACK 87 AUDIO
    TITLE "0:"
    INDEX 01 02:04:07
  TRACK 88 AUDIO
    TITLE "22:cjc171_12994"
    INDEX 01 02:04:44
  TRACK 89 AUDIO
    TITLE "0:"
    INDEX 01 02:06:29
  TRACK 90 AUDIO
    TITLE "23:cjc171_12995"
    INDEX 01 02:06:56
  TRACK 91 AUDIO
    TITLE "0:"
    INDEX 01 02:08:44
  TRACK 92 AUDIO
    TITLE "19:cjc171_12996"
    INDEX 01 02:09:47
  TRACK 93 AUDIO
    TITLE "0:"
    INDEX 01 02:10:62
  TRACK 94 AUDIO
    TITLE "20:cjc171_12997"
    INDEX 01 02:11:24
  TRACK 95 AUDIO
    TITLE "0:"
    INDEX 01 02:12:53
  TRACK 96 AUDIO
    TITLE "21:cjc171_12998"
    INDEX 01 02:13:53
  TRACK 97 AUDIO
    TITLE "0:"
    INDEX 01 02:16:08
  TRACK 98 AUDIO
    TITLE "22:cjc171_12999"
    INDEX 01 02:16:43
  TRACK 99 AUDIO
    TITLE "0:"
    INDEX 01 02:18:54
  TRACK 100 AUDIO
    TITLE "23:cjc171_13000"
    INDEX 01 02:18:75
  TRACK 101 AUDIO
    TITLE "0:"
    INDEX 01 02:21:11
  TRACK 102 AUDIO
    TITLE "19:cjc171_13001"
    INDEX 01 02:22:07
  TRACK 103 AUDIO
    TITLE "0:"
    INDEX 01 02:23:14
  TRACK 104 AUDIO
    TITLE "20:cjc171_13002"
    INDEX 01 02:23:53
  TRACK 105 AUDIO
    TITLE "0:"
    INDEX 01 02:27:14
  TRACK 106 AUDIO
    TITLE "21:cjc171_13003"
    INDEX 01 02:28:13
  TRACK 107 AUDIO
    TITLE "0:"
    INDEX 01 02:32:13
  TRACK 108 AUDIO
    TITLE "22:cjc171_13004"
    INDEX 01 02:32:46
  TRACK 109 AUDIO
    TITLE "0:"
    INDEX 01 02:37:35
  TRACK 110 AUDIO
    TITLE "23:cjc171_13005"
    INDEX 01 02:37:55
  TRACK 111 AUDIO
    TITLE "0:"
    INDEX 01 02:42:44
  TRACK 112 AUDIO
    TITLE "19:cjc171_13006"
    INDEX 01 02:43:38
  TRACK 113 AUDIO
    TITLE "0:"
    INDEX 01 02:44:47
  TRACK 114 AUDIO
    TITLE "20:cjc171_13007"
    INDEX 01 02:45:08
  TRACK 115 AUDIO
    TITLE "0:"
    INDEX 01 02:47:32
  TRACK 116 AUDIO
    TITLE "21:cjc171_13008"
    INDEX 01 02:48:29
  TRACK 117 AUDIO
    TITLE "0:"
    INDEX 01 02:50:60
  TRACK 118 AUDIO
    TITLE "22:cjc171_13009"
    INDEX 01 02:51:20
  TRACK 119 AUDIO
    TITLE "0:"
    INDEX 01 02:53:44
  TRACK 120 AUDIO
    TITLE "23:cjc171_13010"
    INDEX 01 02:53:66
  TRACK 121 AUDIO
    TITLE "0:"
    INDEX 01 02:56:15
  TRACK 122 AUDIO
    TITLE "19:cjc171_13011"
    INDEX 01 02:57:15
  TRACK 123 AUDIO
    TITLE "0:"
    INDEX 01 02:58:40
  TRACK 124 AUDIO
    TITLE "20:cjc171_13012"
    INDEX 01 02:59:02
  TRACK 125 AUDIO
    TITLE "0:"
    INDEX 01 03:01:57
  TRACK 126 AUDIO
    TITLE "21:cjc171_13013"
    INDEX 01 03:02:57
  TRACK 127 AUDIO
    TITLE "0:"
    INDEX 01 03:05:51
  TRACK 128 AUDIO
    TITLE "22:cjc171_13014"
    INDEX 01 03:06:16
  TRACK 129 AUDIO
    TITLE "0:"
    INDEX 01 03:08:58
  TRACK 130 AUDIO
    TITLE "23:cjc171_13015"
    INDEX 01 03:09:10
  TRACK 131 AUDIO
    TITLE "0:"
    INDEX 01 03:11:52
  TRACK 132 AUDIO
    TITLE "19:cjc171_13016"
    INDEX 01 03:12:55
  TRACK 133 AUDIO
    TITLE "0:"
    INDEX 01 03:14:03
  TRACK 134 AUDIO
    TITLE "20:cjc171_13017"
    INDEX 01 03:14:44
  TRACK 135 AUDIO
    TITLE "0:"
    INDEX 01 03:17:41
  TRACK 136 AUDIO
    TITLE "21:cjc171_13018"
    INDEX 01 03:18:40
  TRACK 137 AUDIO
    TITLE "0:"
    INDEX 01 03:20:39
  TRACK 138 AUDIO
    TITLE "22:cjc171_13019"
    INDEX 01 03:21:05
  TRACK 139 AUDIO
    TITLE "0:"
    INDEX 01 03:22:75
  TRACK 140 AUDIO
    TITLE "23:cjc171_13020"
    INDEX 01 03:23:30
  TRACK 141 AUDIO
    TITLE "0:"
    INDEX 01 03:25:25
  TRACK 142 AUDIO
    TITLE "19:cjc171_13021"
    INDEX 01 03:26:30
  TRACK 143 AUDIO
    TITLE "0:"
    INDEX 01 03:27:61
  TRACK 144 AUDIO
    TITLE "20:cjc171_13022"
    INDEX 01 03:28:27
  TRACK 145 AUDIO
    TITLE "0:"
    INDEX 01 03:30:67
  TRACK 146 AUDIO
    TITLE "21:cjc171_13023"
    INDEX 01 03:31:68
  TRACK 147 AUDIO
    TITLE "0:"
    INDEX 01 03:33:34
  TRACK 148 AUDIO
    TITLE "22:cjc171_13024"
    INDEX 01 03:33:75
  TRACK 149 AUDIO
    TITLE "0:"
    INDEX 01 03:35:58
  TRACK 150 AUDIO
    TITLE "23:cjc171_13025"
    INDEX 01 03:36:13
  TRACK 151 AUDIO
    TITLE "0:"
    INDEX 01 03:37:71
  TRACK 152 AUDIO
    TITLE "19:cjc171_13026"
    INDEX 01 03:38:70
  TRACK 153 AUDIO
    TITLE "0:"
    INDEX 01 03:40:20
  TRACK 154 AUDIO
    TITLE "20:cjc171_13027"
    INDEX 01 03:40:58
  TRACK 155 AUDIO
    TITLE "0:"
    INDEX 01 03:42:47
  TRACK 156 AUDIO
    TITLE "21:cjc171_13028"
    INDEX 01 03:43:44
  TRACK 157 AUDIO
    TITLE "0:"
    INDEX 01 03:45:72
  TRACK 158 AUDIO
    TITLE "22:cjc171_13029"
    INDEX 01 03:46:35
  TRACK 159 AUDIO
    TITLE "0:"
    INDEX 01 03:49:17
  TRACK 160 AUDIO
    TITLE "23:cjc171_13030"
    INDEX 01 03:49:37
  TRACK 161 AUDIO
    TITLE "0:"
    INDEX 01 03:52:20
  TRACK 162 AUDIO
    TITLE "19:cjc171_13031"
    INDEX 01 03:53:15
  TRACK 163 AUDIO
    TITLE "0:"
    INDEX 01 03:54:50
  TRACK 164 AUDIO
    TITLE "20:cjc171_13032"
    INDEX 01 03:55:10
  TRACK 165 AUDIO
    TITLE "0:"
    INDEX 01 03:58:32
  TRACK 166 AUDIO
    TITLE "21:cjc171_13033"
    INDEX 01 03:59:33
  TRACK 167 AUDIO
    TITLE "0:"
    INDEX 01 04:02:12
  TRACK 168 AUDIO
    TITLE "22:cjc171_13034"
    INDEX 01 04:02:45
  TRACK 169 AUDIO
    TITLE "0:"
    INDEX 01 04:05:05
  TRACK 170 AUDIO
    TITLE "23:cjc171_13035"
    INDEX 01 04:05:24
  TRACK 171 AUDIO
    TITLE "0:"
    INDEX 01 04:07:58
  TRACK 172 AUDIO
    TITLE "19:cjc171_13036"
    INDEX 01 04:08:58
  TRACK 173 AUDIO
    TITLE "0:"
    INDEX 01 04:09:71
  TRACK 174 AUDIO
    TITLE "20:cjc171_13037"
    INDEX 01 04:10:31
  TRACK 175 AUDIO
    TITLE "0:"
    INDEX 01 04:12:75
  TRACK 176 AUDIO
    TITLE "21:cjc171_13038"
    INDEX 01 04:13:75
  TRACK 177 AUDIO
    TITLE "0:"
    INDEX 01 04:15:34
  TRACK 178 AUDIO
    TITLE "22:cjc171_13039"
    INDEX 01 04:15:70
  TRACK 179 AUDIO
    TITLE "0:"
    INDEX 01 04:17:55
  TRACK 180 AUDIO
    TITLE "23:cjc171_13040"
    INDEX 01 04:18:01
  TRACK 181 AUDIO
    TITLE "0:"
    INDEX 01 04:19:62
  TRACK 182 AUDIO
    TITLE "19:cjc171_13041"
    INDEX 01 04:20:65
  TRACK 183 AUDIO
    TITLE "0:"
    INDEX 01 04:21:74
  TRACK 184 AUDIO
    TITLE "20:cjc171_13042"
    INDEX 01 04:22:36
  TRACK 185 AUDIO
    TITLE "0:"
    INDEX 01 04:23:38
  TRACK 186 AUDIO
    TITLE "21:cjc171_13043"
    INDEX 01 04:24:37
  TRACK 187 AUDIO
    TITLE "0:"
    INDEX 01 04:26:01
  TRACK 188 AUDIO
    TITLE "22:cjc171_13044"
    INDEX 01 04:26:42
  TRACK 189 AUDIO
    TITLE "0:"
    INDEX 01 04:28:68
  TRACK 190 AUDIO
    TITLE "23:cjc171_13045"
    INDEX 01 04:29:23
  TRACK 191 AUDIO
    TITLE "0:"
    INDEX 01 04:31:49
  TRACK 192 AUDIO
    TITLE "19:cjc171_13046"
    INDEX 01 04:32:52
  TRACK 193 AUDIO
    TITLE "0:"
    INDEX 01 04:33:70
  TRACK 194 AUDIO
    TITLE "20:cjc171_13047"
    INDEX 01 04:34:34
  TRACK 195 AUDIO
    TITLE "0:"
    INDEX 01 04:35:61
  TRACK 196 AUDIO
    TITLE "21:cjc171_13048"
    INDEX 01 04:36:60
  TRACK 197 AUDIO
    TITLE "0:"
    INDEX 01 04:39:07
  TRACK 198 AUDIO
    TITLE "22:cjc171_13049"
    INDEX 01 04:39:45
  TRACK 199 AUDIO
    TITLE "0:"
    INDEX 01 04:41:55
  TRACK 200 AUDIO
    TITLE "23:cjc171_13050"
    INDEX 01 04:42:10
  TRACK 201 AUDIO
    TITLE "0:"
    INDEX 01 04:44:20
  TRACK 202 AUDIO
    TITLE "19:cjc171_13051"
    INDEX 01 04:45:24
  TRACK 203 AUDIO
    TITLE "0:"
    INDEX 01 04:46:35
  TRACK 204 AUDIO
    TITLE "20:cjc171_13052"
    INDEX 01 04:46:74
  TRACK 205 AUDIO
    TITLE "0:"
    INDEX 01 04:49:65
  TRACK 206 AUDIO
    TITLE "21:cjc171_13053"
    INDEX 01 04:50:64
  TRACK 207 AUDIO
    TITLE "0:"
    INDEX 01 04:53:13
  TRACK 208 AUDIO
    TITLE "22:cjc171_13054"
    INDEX 01 04:53:53
  TRACK 209 AUDIO
    TITLE "0:"
    INDEX 01 04:56:04
  TRACK 210 AUDIO
    TITLE "23:cjc171_13055"
    INDEX 01 04:56:35
  TRACK 211 AUDIO
    TITLE "0:"
    INDEX 01 04:58:62
  TRACK 212 AUDIO
    TITLE "19:cjc171_13056"
    INDEX 01 04:59:61
  TRACK 213 AUDIO
    TITLE "0:"
    INDEX 01 05:01:17
  TRACK 214 AUDIO
    TITLE "20:cjc171_13057"
    INDEX 01 05:01:50
  TRACK 215 AUDIO
    TITLE "0:"
    INDEX 01 05:04:43
  TRACK 216 AUDIO
    TITLE "21:cjc171_13058"
    INDEX 01 05:05:42
  TRACK 217 AUDIO
    TITLE "0:"
    INDEX 01 05:08:38
  TRACK 218 AUDIO
    TITLE "22:cjc171_13059"
    INDEX 01 05:08:74
  TRACK 219 AUDIO
    TITLE "0:"
    INDEX 01 05:11:37
  TRACK 220 AUDIO
    TITLE "23:cjc171_13060"
    INDEX 01 05:11:58
  TRACK 221 AUDIO
    TITLE "0:"
    INDEX 01 05:14:21
  TRACK 222 AUDIO
    TITLE "19:cjc171_13061"
    INDEX 01 05:15:17
  TRACK 223 AUDIO
    TITLE "0:"
    INDEX 01 05:16:24
  TRACK 224 AUDIO
    TITLE "20:cjc171_13062"
    INDEX 01 05:16:65
  TRACK 225 AUDIO
    TITLE "0:"
    INDEX 01 05:19:23
  TRACK 226 AUDIO
    TITLE "21:cjc171_13063"
    INDEX 01 05:20:22
  TRACK 227 AUDIO
    TITLE "0:"
    INDEX 01 05:21:53
  TRACK 228 AUDIO
    TITLE "22:cjc171_13064"
    INDEX 01 05:22:13
  TRACK 229 AUDIO
    TITLE "0:"
    INDEX 01 05:24:24
  TRACK 230 AUDIO
    TITLE "23:cjc171_13065"
    INDEX 01 05:24:51
  TRACK 231 AUDIO
    TITLE "0:"
    INDEX 01 05:26:64
  TRACK 232 AUDIO
    TITLE "19:cjc171_13066"
    INDEX 01 05:27:67
  TRACK 233 AUDIO
    TITLE "0:"
    INDEX 01 05:29:07
  TRACK 234 AUDIO
    TITLE "20:cjc171_13067"
    INDEX 01 05:29:43
  TRACK 235 AUDIO
    TITLE "0:"
    INDEX 01 05:32:64
  TRACK 236 AUDIO
    TITLE "21:cjc171_13068"
    INDEX 01 05:33:62
  TRACK 237 AUDIO
    TITLE "0:"
    INDEX 01 05:36:19
  TRACK 238 AUDIO
    TITLE "22:cjc171_13069"
    INDEX 01 05:36:54
  TRACK 239 AUDIO
    TITLE "0:"
    INDEX 01 05:39:10
  TRACK 240 AUDIO
    TITLE "23:cjc171_13070"
    INDEX 01 05:39:31
  TRACK 241 AUDIO
    TITLE "0:"
    INDEX 01 05:41:59
  TRACK 242 AUDIO
    TITLE "19:cjc171_13071"
    INDEX 01 05:42:61
  TRACK 243 AUDIO
    TITLE "0:"
    INDEX 01 05:43:60
  TRACK 244 AUDIO
    TITLE "20:cjc171_13072"
    INDEX 01 05:44:28
  TRACK 245 AUDIO
    TITLE "0:"
    INDEX 01 05:47:13
  TRACK 246 AUDIO
    TITLE "21:cjc171_13073"
    INDEX 01 05:48:14
  TRACK 247 AUDIO
    TITLE "0:"
    INDEX 01 05:50:43
  TRACK 248 AUDIO
    TITLE "22:cjc171_13074"
    INDEX 01 05:51:07
  TRACK 249 AUDIO
    TITLE "0:"
    INDEX 01 05:52:71
  TRACK 250 AUDIO
    TITLE "23:cjc171_13075"
    INDEX 01 05:53:25
  TRACK 251 AUDIO
    TITLE "0:"
    INDEX 01 05:55:13
  TRACK 252 AUDIO
    TITLE "19:cjc171_13076"
    INDEX 01 05:56:18
  TRACK 253 AUDIO
    TITLE "0:"
    INDEX 01 05:57:45
  TRACK 254 AUDIO
    TITLE "20:cjc171_13077"
    INDEX 01 05:58:11
  TRACK 255 AUDIO
    TITLE "0:"
    INDEX 01 06:00:37
  TRACK 256 AUDIO
    TITLE "21:cjc171_13078"
    INDEX 01 06:01:37
  TRACK 257 AUDIO
    TITLE "0:"
    INDEX 01 06:03:45
  TRACK 258 AUDIO
    TITLE "22:cjc171_13079"
    INDEX 01 06:04:10
  TRACK 259 AUDIO
    TITLE "0:"
    INDEX 01 06:06:18
  TRACK 260 AUDIO
    TITLE "23:cjc171_13080"
    INDEX 01 06:06:50
  TRACK 261 AUDIO
    TITLE "0:"
    INDEX 01 06:08:54
  TRACK 262 AUDIO
    TITLE "19:cjc171_13081"
    INDEX 01 06:09:60
  TRACK 263 AUDIO
    TITLE "0:"
    INDEX 01 06:11:04
  TRACK 264 AUDIO
    TITLE "20:cjc171_13082"
    INDEX 01 06:11:43
  TRACK 265 AUDIO
    TITLE "0:"
    INDEX 01 06:14:10
  TRACK 266 AUDIO
    TITLE "21:cjc171_13083"
    INDEX 01 06:15:09
  TRACK 267 AUDIO
    TITLE "0:"
    INDEX 01 06:16:48
  TRACK 268 AUDIO
    TITLE "22:cjc171_13084"
    INDEX 01 06:17:12
  TRACK 269 AUDIO
    TITLE "0:"
    INDEX 01 06:19:03
  TRACK 270 AUDIO
    TITLE "23:cjc171_13085"
    INDEX 01 06:19:33
  TRACK 271 AUDIO
    TITLE "0:"
    INDEX 01 06:21:24
  TRACK 272 AUDIO
    TITLE "19:cjc171_13086"
    INDEX 01 06:22:21
  TRACK 273 AUDIO
    TITLE "0:"
    INDEX 01 06:23:36
  TRACK 274 AUDIO
    TITLE "20:cjc171_13087"
    INDEX 01 06:24:02
  TRACK 275 AUDIO
    TITLE "0:"
    INDEX 01 06:25:49
  TRACK 276 AUDIO
    TITLE "21:cjc171_13088"
    INDEX 01 06:26:50
  TRACK 277 AUDIO
    TITLE "0:"
    INDEX 01 06:29:04
  TRACK 278 AUDIO
    TITLE "22:cjc171_13089"
    INDEX 01 06:29:37
  TRACK 279 AUDIO
    TITLE "0:"
    INDEX 01 06:32:18
  TRACK 280 AUDIO
    TITLE "23:cjc171_13090"
    INDEX 01 06:32:39
  TRACK 281 AUDIO
    TITLE "0:"
    INDEX 01 06:35:20
  TRACK 282 AUDIO
    TITLE "19:cjc171_13091"
    INDEX 01 06:36:17
  TRACK 283 AUDIO
    TITLE "0:"
    INDEX 01 06:37:27
  TRACK 284 AUDIO
    TITLE "20:cjc171_13092"
    INDEX 01 06:37:64
  TRACK 285 AUDIO
    TITLE "0:"
    INDEX 01 06:40:11
  TRACK 286 AUDIO
    TITLE "21:cjc171_13093"
    INDEX 01 06:41:09
  TRACK 287 AUDIO
    TITLE "0:"
    INDEX 01 06:43:27
  TRACK 288 AUDIO
    TITLE "22:cjc171_13094"
    INDEX 01 06:43:63
  TRACK 289 AUDIO
    TITLE "0:"
    INDEX 01 06:45:71
  TRACK 290 AUDIO
    TITLE "23:cjc171_13095"
    INDEX 01 06:46:18
  TRACK 291 AUDIO
    TITLE "0:"
    INDEX 01 06:48:26
  TRACK 292 AUDIO
    TITLE "19:cjc171_13096"
    INDEX 01 06:49:22
  TRACK 293 AUDIO
    TITLE "0:"
    INDEX 01 06:50:25
  TRACK 294 AUDIO
    TITLE "20:cjc171_13097"
    INDEX 01 06:50:59
  TRACK 295 AUDIO
    TITLE "0:"
    INDEX 01 06:52:73
  TRACK 296 AUDIO
    TITLE "21:cjc171_13098"
    INDEX 01 06:53:73
  TRACK 297 AUDIO
    TITLE "0:"
    INDEX 01 06:55:42
  TRACK 298 AUDIO
    TITLE "22:cjc171_13099"
    INDEX 01 06:56:01
  TRACK 299 AUDIO
    TITLE "0:"
    INDEX 01 06:58:05
  TRACK 300 AUDIO
    TITLE "23:cjc171_13100"
    INDEX 01 06:58:23
  TRACK 301 AUDIO
    TITLE "0:"
    INDEX 01 07:00:32
